<svg width="30" height="30" viewBox="0 0 30 30" fill="none" xmlns="http://www.w3.org/2000/svg">
<g id="Icon">
<path id="Vector" d="M13.8462 0C12.5712 0 11.5385 1.00688 11.5385 2.25V4.5H18.4615V2.25C18.4615 1.00688 17.4288 0 16.1538 0H13.8462ZM18.4615 4.5V5.625C18.4615 6.86812 17.4288 7.875 16.1538 7.875H13.8462C12.5712 7.875 11.5385 6.86812 11.5385 5.625V4.5H2.30769C1.03269 4.5 0 5.50688 0 6.75V24.75C0 25.9931 1.03269 27 2.30769 27H27.6923C28.9673 27 30 25.9931 30 24.75V6.75C30 5.50688 28.9673 4.5 27.6923 4.5H18.4615ZM9.23077 10.125C10.3315 10.125 10.6731 10.8875 10.6731 10.8875C11.6573 10.8875 12.1154 11.9374 12.1154 13.1704C12.1154 13.7858 11.8607 14.2954 11.8607 14.2954C11.9623 14.3573 12.1321 14.5542 12.0906 14.9041C12.0121 15.5554 11.7441 15.7211 11.5745 15.7346C11.5099 16.3421 10.8923 17.1207 10.6753 17.2332V18.2505C11.1069 19.6196 13.2138 18.9484 13.8484 21.375H4.61538C5.25 18.9484 7.35692 19.6196 7.78846 18.2505V17.2332C7.57154 17.1207 6.95389 16.3421 6.88927 15.7346C6.71966 15.7211 6.45166 15.5554 6.3732 14.9041C6.3305 14.5542 6.49812 14.3573 6.60081 14.2954C6.60081 14.2954 6.34841 13.7318 6.34841 13.1704C6.34725 11.5054 7.19192 10.125 9.23077 10.125ZM17.3077 14.625H24.2308C24.8677 14.625 25.3846 15.129 25.3846 15.75C25.3846 16.371 24.8677 16.875 24.2308 16.875H17.3077C16.6708 16.875 16.1538 16.371 16.1538 15.75C16.1538 15.129 16.6708 14.625 17.3077 14.625ZM17.3077 19.125H24.2308C24.8677 19.125 25.3846 19.629 25.3846 20.25C25.3846 20.871 24.8677 21.375 24.2308 21.375H17.3077C16.6708 21.375 16.1538 20.871 16.1538 20.25C16.1538 19.629 16.6708 19.125 17.3077 19.125Z" fill="#B692FF"/>
</g>
</svg>
