<svg width="30" height="30" viewBox="0 0 30 30" fill="none" xmlns="http://www.w3.org/2000/svg">
<g id="Icon">
<path id="Vector" d="M5.78795 0C5.02075 0 4.28497 0.301704 3.74248 0.83874C3.19999 1.37578 2.89522 2.10415 2.89522 2.86364C2.89522 3.62312 3.19999 4.3515 3.74248 4.88853C4.28497 5.42557 5.02075 5.72727 5.78795 5.72727C6.55514 5.72727 7.29092 5.42557 7.83341 4.88853C8.3759 4.3515 8.68067 3.62312 8.68067 2.86364C8.68067 2.10415 8.3759 1.37578 7.83341 0.83874C7.29092 0.301704 6.55514 0 5.78795 0ZM21.2158 0C20.4486 0 19.7128 0.301704 19.1704 0.83874C18.6279 1.37578 18.3231 2.10415 18.3231 2.86364C18.3231 3.62312 18.6279 4.3515 19.1704 4.88853C19.7128 5.42557 20.4486 5.72727 21.2158 5.72727C21.983 5.72727 22.7188 5.42557 23.2613 4.88853C23.8038 4.3515 24.1085 3.62312 24.1085 2.86364C24.1085 2.10415 23.8038 1.37578 23.2613 0.83874C22.7188 0.301704 21.983 0 21.2158 0ZM13.5019 4.77273C12.7347 4.77273 11.9989 5.07443 11.4564 5.61147C10.9139 6.1485 10.6092 6.87688 10.6092 7.63636C10.6092 8.39585 10.9139 9.12422 11.4564 9.66126C11.9989 10.1983 12.7347 10.5 13.5019 10.5C14.2691 10.5 15.0049 10.1983 15.5473 9.66126C16.0898 9.12422 16.3946 8.39585 16.3946 7.63636C16.3946 6.87688 16.0898 6.1485 15.5473 5.61147C15.0049 5.07443 14.2691 4.77273 13.5019 4.77273ZM5.78795 9.54545C5.02075 9.54545 4.28497 9.84716 3.74248 10.3842C3.19999 10.9212 2.89522 11.6496 2.89522 12.4091C2.89522 13.1686 3.19999 13.897 3.74248 14.434C4.28497 14.971 5.02075 15.2727 5.78795 15.2727C6.55514 15.2727 7.29092 14.971 7.83341 14.434C8.3759 13.897 8.68067 13.1686 8.68067 12.4091C8.68067 11.6496 8.3759 10.9212 7.83341 10.3842C7.29092 9.84716 6.55514 9.54545 5.78795 9.54545ZM21.2158 9.54545C20.4486 9.54545 19.7128 9.84716 19.1704 10.3842C18.6279 10.9212 18.3231 11.6496 18.3231 12.4091C18.3231 13.1686 18.6279 13.897 19.1704 14.434C19.7128 14.971 20.4486 15.2727 21.2158 15.2727C21.983 15.2727 22.7188 14.971 23.2613 14.434C23.8038 13.897 24.1085 13.1686 24.1085 12.4091C24.1085 11.6496 23.8038 10.9212 23.2613 10.3842C22.7188 9.84716 21.983 9.54545 21.2158 9.54545ZM5.78606 17.1818C3.67919 17.1818 0.974615 18.483 0.196471 19.4843C-0.284686 20.1028 0.174218 21 0.962968 21H10.6092C11.3979 21 11.8568 20.1028 11.3757 19.4843C10.5985 18.483 7.89293 17.1818 5.78606 17.1818ZM21.2139 17.1818C19.1071 17.1818 16.4025 18.483 15.6243 19.4843C15.1432 20.1028 15.6021 21 16.3908 21H26.037C26.8258 21 27.2847 20.1028 26.8035 19.4843C26.0263 18.483 23.3208 17.1818 21.2139 17.1818Z" fill="#B692FF"/>
</g>
</svg>
