<svg width="30" height="30" viewBox="0 0 30 30" fill="none" xmlns="http://www.w3.org/2000/svg">
<g id="Icon" clip-path="url(#clip0_1_316)">
<path id="Vector" d="M12.4925 0C5.60786 0 0 5.60786 0 12.4925C0 19.3771 5.60786 24.9849 12.4925 24.9849C15.4863 24.9849 18.2357 23.9218 20.3905 22.157L27.8494 29.6159C27.9645 29.7358 28.1024 29.8315 28.2549 29.8975C28.4075 29.9634 28.5717 29.9982 28.7379 29.9999C28.9041 30.0016 29.069 29.9701 29.2229 29.9073C29.3767 29.8445 29.5165 29.7516 29.6341 29.6341C29.7516 29.5165 29.8445 29.3767 29.9073 29.2229C29.9701 29.069 30.0016 28.9041 29.9999 28.7379C29.9982 28.5717 29.9634 28.4075 29.8975 28.2549C29.8315 28.1024 29.7358 27.9645 29.6159 27.8494L22.157 20.3905C23.9218 18.2357 24.9849 15.4863 24.9849 12.4925C24.9849 5.60786 19.3771 0 12.4925 0ZM12.4925 2.49849C18.0268 2.49849 22.4864 6.95814 22.4864 12.4925C22.4864 18.0268 18.0268 22.4864 12.4925 22.4864C6.95814 22.4864 2.49849 18.0268 2.49849 12.4925C2.49849 6.95814 6.95814 2.49849 12.4925 2.49849ZM12.4925 4.99698C11.4985 4.99698 10.5452 5.39183 9.8424 6.09467C9.13957 6.79751 8.74472 7.75076 8.74472 8.74472C8.74472 9.73868 9.13957 10.6919 9.8424 11.3948C10.5452 12.0976 11.4985 12.4925 12.4925 12.4925C13.4864 12.4925 14.4397 12.0976 15.1425 11.3948C15.8453 10.6919 16.2402 9.73868 16.2402 8.74472C16.2402 7.75076 15.8453 6.79751 15.1425 6.09467C14.4397 5.39183 13.4864 4.99698 12.4925 4.99698ZM12.4925 14.9909C10.2938 14.9909 8.36944 16.1328 7.25636 17.8505C8.60804 19.171 10.4537 19.9879 12.4925 19.9879C14.5312 19.9879 16.3769 19.171 17.7285 17.8505C16.6155 16.1328 14.6911 14.9909 12.4925 14.9909Z" fill="#B692FF"/>
</g>
<defs>
<clipPath id="clip0_1_316">
<rect width="30" height="30" fill="white"/>
</clipPath>
</defs>
</svg>
